<svg version="1.2" xmlns="http://www.w3.org/2000/svg" viewBox="0 0 150 50" width="150" height="50">
	<style>
		.s0 { fill: #ffffff } 
		.s1 { fill: #ae63ff } 
	</style>
	<path class="s0" d="m130.18 13.81c1.66-0.07 3.77-0.01 5.48-0.02 2.1 0.13 4.65-0.24 6.71 0.26 4.23 1.04 6.53 5.24 5.45 9.41-0.63 2.4-1.76 3.45-3.77 4.66 0.55 1.12 1.24 2.26 1.85 3.34q1.52 2.68 2.98 5.39c-1.11 0.07-3.01 0.01-4.2 0.01-0.67 0.01-1.17 0.02-1.84-0.03-0.35-0.55-0.88-1.65-1.23-2.28l-3.07-5.6q-1.49 0.01-2.97-0.04l-0.02 7.95c-1.72 0.04-3.69-0.01-5.42-0.03-0.01-2.2-0.17-22.41 0.05-23.02zm5.39 10.39c1.15-0.09 2.33-0.03 3.49-0.04 1.16 0 1.73 0.01 2.65-0.73 0.38-0.48 0.72-0.92 0.78-1.57 0.34-3.97-4.22-3.16-6.92-3.13z"/>
	<path class="s0" d="m107.89 13.79c1.59-0.04 3.55-0.03 5.15-0.01 2.36 0.1 4.93-0.27 7.22 0.38 6.48 1.83 7.51 10.8 1.47 13.98 0.41 0.61 0.79 1.3 1.14 1.94 1.21 2.28 2.55 4.51 3.71 6.81q-2.15-0.03-4.31-0.03c-0.59 0.01-1.09-0.01-1.67-0.03-0.42-0.62-1.16-2.06-1.54-2.76q-1.41-2.56-2.79-5.14l-2.92 0.02q0.02 3.95-0.04 7.9c-1.72 0.06-3.7 0.02-5.43-0.02-0.05-1.88 0.02-4.02 0.02-5.93zm5.45 10.36q1.62-0.03 3.25-0.01c1.18 0.01 1.91 0.04 2.85-0.73 1.16-1.49 0.99-3.92-1.05-4.53-1.17-0.35-3.67-0.17-5.03-0.16z"/>
	<path class="s0" d="m52.43 13.8c1.78-0.07 3.99-0.02 5.8-0.02l6.07 15.58 1.78 4.52c0.35 0.91 0.86 2.09 1.11 3-1.93-0.02-3.98 0.03-5.88-0.05-0.33-0.7-1.01-2.86-1.29-3.68-0.61-0.02-1.33-0.01-1.95-0.01-2.35-0.01-5.1 0.07-7.42-0.05-0.21 0.82-0.99 2.87-1.3 3.77-1.06 0.1-4.79 0.02-5.96-0.02 0.7-1.95 1.61-4.06 2.38-6l3.62-9.19q1.03-2.61 2.04-5.24c0.24-0.62 0.75-2.13 1-2.61zm3.09 14.58c0.92 0 1.88 0.01 2.79 0-0.35-0.86-2.84-7.91-3.01-8.03-0.69 1.76-1.25 3.64-1.91 5.42-0.33 0.87-0.59 1.78-1.01 2.61z"/>
	<path class="s0" d="m71.79 13.8c2.02-0.06 4.34-0.01 6.38-0.01l11.52-0.01q0 1.66 0.03 3.31l-5.3 7.4c-1.72 2.44-3.52 5.07-5.32 7.44l10.98-0.02v4.95c-0.89 0.04-1.89 0.03-2.77 0.01-5.23-0.12-10.56 0.15-15.78-0.04-0.02-1.17-0.01-2.36-0.02-3.52 0.53-0.93 2.24-3.12 2.96-4.15 2.42-3.49 4.97-6.94 7.39-10.43-3.32 0.03-6.82 0.05-10.13-0.01-0.01-0.74-0.06-4.39 0.06-4.92z"/>
	<path class="s1" d="m24.46 25.34c1.57-0.13 4.55-0.03 6.22-0.03 0.34 0.62 0.79 1.71 1.09 2.38l2.19 4.9c1.51 3.41 3.17 6.81 4.43 10.3l-17.81-0.04-1 0.01c-0.69-1.29-1.29-2.6-2-3.9 0.73-1.64 1.52-3.2 2.25-4.88 1.63-0.02 3.32 0.01 4.95 0.01-0.3 0.91-1.21 2.87-1.61 3.81q3.43-0.03 6.86 0.02c-0.56-1.08-5.62-12.29-5.57-12.58z"/>
	<path class="s1" d="m17.38 8.06c0.8-0.1 4.95-0.05 5.9-0.03 1.28 3.48 3.17 6.85 4.54 10.31 0.42 1.08 1.01 2.17 1.45 3.27-1.46 0.12-4.65 0.06-6.14 0.03-0.79-2.06-1.96-4.48-2.86-6.53-0.45 1.32-1.72 3.96-2.32 5.31-0.5 1.18-1.14 2.3-1.65 3.51 0.54 1.38 0.99 2.43 1.67 3.75-1.04 0.05-2.37 0.01-3.43 0.01q-2.97 0.02-5.94-0.02c0.53-1.32 1.3-2.74 1.9-4.04 2.35-5.15 4.54-10.42 6.88-15.57z"/>
	<path class="s0" d="m96.08 13.81c1.76-0.05 3.68-0.02 5.46-0.02l0.01 16.75v4.1c0 0.48 0.03 1.82-0.06 2.22-1.6 0.02-3.92 0.09-5.46-0.03l0.04-15.02c0-2.6-0.07-5.42 0.01-8z"/>
	<path class="s1" d="m6.85 31.61c0.53-0.11 2.55-0.08 3.18-0.08q3.14-0.02 6.28 0.02c-1.65 3.64-3.49 7.45-5.04 11.11l-0.05 0.08c-0.38 0.23-8.2 0.1-9.22 0.08 0.97-2.54 2.32-5.16 3.39-7.67 0.37-0.86 1.28-2.69 1.46-3.54z"/>
</svg>