<svg version="1.2" xmlns="http://www.w3.org/2000/svg" viewBox="0 0 64 64" width="64" height="64">
	<style>
		.s0 { fill: #ae63ff } 
	</style>
	<path class="s0" d="m39.43 31.67c2.69-0.23 7.79-0.05 10.65-0.05 0.57 1.06 1.34 2.93 1.85 4.07l3.75 8.39c2.58 5.83 5.43 11.64 7.58 17.61l-30.48-0.07-1.71 0.02c-1.17-2.2-2.2-4.43-3.42-6.67 1.26-2.81 2.6-5.48 3.86-8.34 2.79-0.04 5.67 0.02 8.46 0.02-0.5 1.55-2.06 4.9-2.75 6.51q5.88-0.06 11.74 0.03c-0.96-1.85-9.62-21.03-9.53-21.52z"/>
	<path class="s0" d="m27.32 2.11c1.36-0.18 8.46-0.09 10.09-0.06 2.2 5.95 5.43 11.71 7.76 17.65 0.72 1.85 1.73 3.7 2.48 5.58-2.49 0.21-7.94 0.11-10.5 0.06-1.35-3.53-3.36-7.67-4.89-11.17-0.77 2.25-2.95 6.77-3.96 9.09-0.86 2.01-1.96 3.93-2.83 6 0.92 2.36 1.69 4.16 2.86 6.41-1.78 0.09-4.06 0.02-5.88 0.02q-5.08 0.03-10.16-0.04c0.91-2.25 2.22-4.68 3.25-6.91 4.03-8.82 7.77-17.82 11.78-26.63z"/>
	<path class="s0" d="m9.29 42.4c0.91-0.19 4.36-0.13 5.45-0.13q5.37-0.04 10.75 0.03c-2.83 6.23-5.97 12.74-8.63 19.01l-0.08 0.14c-0.65 0.38-14.03 0.15-15.78 0.14 1.66-4.35 3.96-8.84 5.79-13.13 0.65-1.48 2.2-4.61 2.5-6.06z"/>
</svg>